{
	"asset":{
		"generator":"Khronos glTF Blender I/O v4.0.44",
		"version":"2.0"
	},
	"extensionsUsed":[
		"KHR_materials_specular",
		"KHR_materials_ior"
	],
	"scene":0,
	"scenes":[
		{
			"name":"Scene",
			"nodes":[
				0
			]
		}
	],
	"nodes":[
		{
			"mesh":0,
			"name":"Frondoso\u00c1rbol",
			"rotation":[
				-1,
				0,
				0,
				4.371138828673793e-08
			],
			"scale":[
				-0.17869648337364197,
				-0.2074304223060608,
				-0.2074304074048996
			],
			"translation":[
				-0.009653076529502869,
				0.23193064332008362,
				2
			]
		}
	],
	"materials":[
		{
			"doubleSided":true,
			"extensions":{
				"KHR_materials_specular":{
					"specularFactor":0
				},
				"KHR_materials_ior":{
					"ior":1.4500000476837158
				}
			},
			"name":"\u00c0rbol frondoso",
			"normalTexture":{
				"index":0
			},
			"pbrMetallicRoughness":{
				"baseColorTexture":{
					"index":1
				},
				"metallicFactor":0
			}
		},
		{
			"doubleSided":true,
			"extensions":{
				"KHR_materials_specular":{
					"specularFactor":0
				},
				"KHR_materials_ior":{
					"ior":1.4500000476837158
				}
			},
			"name":"FrondosoRosa",
			"normalTexture":{
				"index":2
			},
			"pbrMetallicRoughness":{
				"baseColorTexture":{
					"index":3
				},
				"metallicFactor":0
			}
		}
	],
	"meshes":[
		{
			"name":"Cubo.002",
			"primitives":[
				{
					"attributes":{
						"POSITION":0,
						"NORMAL":1,
						"TEXCOORD_0":2
					},
					"indices":3,
					"material":0
				},
				{
					"attributes":{
						"POSITION":4,
						"NORMAL":5,
						"TEXCOORD_0":6
					},
					"indices":7,
					"material":1
				}
			]
		}
	],
	"textures":[
		{
			"sampler":0,
			"source":0
		},
		{
			"sampler":0,
			"source":0
		},
		{
			"sampler":0,
			"source":0
		},
		{
			"sampler":0,
			"source":0
		}
	],
	"images":[
		{
			"mimeType":"image/png",
			"name":"baseColor",
			"uri":"textures/baseColor.png"
		}
	],
	"accessors":[
		{
			"bufferView":0,
			"componentType":5126,
			"count":365,
			"max":[
				2.1198220252990723,
				8.31190299987793,
				1.633700966835022
			],
			"min":[
				-2.2671291828155518,
				-1.0175504684448242,
				-2.4766743183135986
			],
			"type":"VEC3"
		},
		{
			"bufferView":1,
			"componentType":5126,
			"count":365,
			"type":"VEC3"
		},
		{
			"bufferView":2,
			"componentType":5126,
			"count":365,
			"type":"VEC2"
		},
		{
			"bufferView":3,
			"componentType":5123,
			"count":1914,
			"type":"SCALAR"
		},
		{
			"bufferView":4,
			"componentType":5126,
			"count":198,
			"max":[
				3.1247260570526123,
				8.928518295288086,
				2.961364269256592
			],
			"min":[
				-3.143131732940674,
				0.2078108787536621,
				-3.371800422668457
			],
			"type":"VEC3"
		},
		{
			"bufferView":5,
			"componentType":5126,
			"count":198,
			"type":"VEC3"
		},
		{
			"bufferView":6,
			"componentType":5126,
			"count":198,
			"type":"VEC2"
		},
		{
			"bufferView":7,
			"componentType":5123,
			"count":1056,
			"type":"SCALAR"
		}
	],
	"bufferViews":[
		{
			"buffer":0,
			"byteLength":4380,
			"byteOffset":0,
			"target":34962
		},
		{
			"buffer":0,
			"byteLength":4380,
			"byteOffset":4380,
			"target":34962
		},
		{
			"buffer":0,
			"byteLength":2920,
			"byteOffset":8760,
			"target":34962
		},
		{
			"buffer":0,
			"byteLength":3828,
			"byteOffset":11680,
			"target":34963
		},
		{
			"buffer":0,
			"byteLength":2376,
			"byteOffset":15508,
			"target":34962
		},
		{
			"buffer":0,
			"byteLength":2376,
			"byteOffset":17884,
			"target":34962
		},
		{
			"buffer":0,
			"byteLength":1584,
			"byteOffset":20260,
			"target":34962
		},
		{
			"buffer":0,
			"byteLength":2112,
			"byteOffset":21844,
			"target":34963
		}
	],
	"samplers":[
		{
			"magFilter":9729,
			"minFilter":9987
		}
	],
	"buffers":[
		{
			"byteLength":23956,
			"uri":"Tree4.bin"
		}
	]
}
