{
	"asset":{
		"generator":"Khronos glTF Blender I/O v4.0.44",
		"version":"2.0"
	},
	"extensionsUsed":[
		"KHR_materials_specular",
		"KHR_materials_ior"
	],
	"scene":0,
	"scenes":[
		{
			"name":"Scene",
			"nodes":[
				0
			]
		}
	],
	"nodes":[
		{
			"mesh": 0,
			"name": "fir_001",
			"rotation": [
				0.7071068286895752,
				0,
				0,
				0.7071068286895752
			],
			"translation": [
				3.009653076529502869,
				0.13193064332008362,
				0
			],
			"scale": [
				0.17869648337364197,
				0.2074304223060608,
				0.2074304074048996
			]

		}
	],
	"materials":[
		{
			"doubleSided":true,
			"extensions":{
				"KHR_materials_specular":{
					"specularFactor":0.2072727382183075
				},
				"KHR_materials_ior":{
					"ior":1.4500000476837158
				}
			},
			"name":"Material.001",
			"pbrMetallicRoughness":{
				"baseColorTexture":{
					"index":0
				},
				"metallicFactor":0,
				"roughnessFactor":0.38363635540008545
			}
		}
	],
	"meshes":[
		{
			"name":"Mesh.603",
			"primitives":[
				{
					"attributes":{
						"POSITION":0,
						"NORMAL":1,
						"TEXCOORD_0":2
					},
					"indices":3,
					"material":0
				}
			]
		}
	],
	"textures":[
		{
			"sampler":0,
			"source":0
		}
	],
	"images":[
		{
			"mimeType":"image/png",
			"name":"baseColor",
			"uri":"textures/baseColor.png"
		}
	],
	"accessors":[
		{
			"bufferView":0,
			"componentType":5126,
			"count":988,
			"max":[
				1.350291132926941,
				1.2714210748672485,
				0.03380846604704857
			],
			"min":[
				-1.2844741344451904,
				-1.3183338642120361,
				-6.148550987243652
			],
			"type":"VEC3"
		},
		{
			"bufferView":1,
			"componentType":5126,
			"count":988,
			"type":"VEC3"
		},
		{
			"bufferView":2,
			"componentType":5126,
			"count":988,
			"type":"VEC2"
		},
		{
			"bufferView":3,
			"componentType":5123,
			"count":1008,
			"type":"SCALAR"
		}
	],
	"bufferViews":[
		{
			"buffer":0,
			"byteLength":11856,
			"byteOffset":0,
			"target":34962
		},
		{
			"buffer":0,
			"byteLength":11856,
			"byteOffset":11856,
			"target":34962
		},
		{
			"buffer":0,
			"byteLength":7904,
			"byteOffset":23712,
			"target":34962
		},
		{
			"buffer":0,
			"byteLength":2016,
			"byteOffset":31616,
			"target":34963
		}
	],
	"samplers":[
		{
			"magFilter":9729,
			"minFilter":9987
		}
	],
	"buffers":[
		{
			"byteLength":33632,
			"uri":"firtree.bin"
		}
	]
}
