{
	"asset":{
		"generator":"Khronos glTF Blender I/O v4.0.44",
		"version":"2.0"
	},
	"extensionsUsed":[
		"KHR_materials_specular",
		"KHR_materials_ior"
	],
	"scene":0,
	"scenes":[
		{
			"name":"Scene",
			"nodes":[
				0
			]
		}
	],
	"nodes":[
		{
			"mesh": 0,
			"name": "house_001",
			"rotation": [
				0.7071068286895752,
				0,
				0,
				0.7071068286895752
			],
			"scale": [
				0.47869648337364197,
				0.5074304223060608,
				0.5074304074048996
			],
			"translation": [
				-0.009653076529502869,
				0.23193064332008362,
				0
			]
		}
	],
	"materials":[
		{
			"doubleSided":true,
			"extensions":{
				"KHR_materials_specular":{
					"specularFactor":0.2072727382183075
				},
				"KHR_materials_ior":{
					"ior":1.4500000476837158
				}
			},
			"name":"baseColor",
			"pbrMetallicRoughness":{
				"baseColorTexture":{
					"index":0
				},
				"metallicFactor":0,
				"roughnessFactor":0.38363635540008545
			}
		}
	],
	"meshes":[
		{
			"name":"Mesh.539",
			"primitives":[
				{
					"attributes":{
						"POSITION":0,
						"NORMAL":1,
						"TEXCOORD_0":2
					},
					"indices":3,
					"material":0
				}
			]
		}
	],
	"textures":[
		{
			"sampler":0,
			"source":0
		}
	],
	"images":[
		{
			"mimeType":"image/png",
			"name":"baseColor",
			"uri":"textures/baseColor.png"
		}
	],
	"accessors":[
		{
			"bufferView":0,
			"componentType":5126,
			"count":912,
			"max":[
				1.4131673574447632,
				1.6241155862808228,
				2.659066922205966e-07
			],
			"min":[
				-1.8046704530715942,
				-2.057173252105713,
				-4.217855930328369
			],
			"type":"VEC3"
		},
		{
			"bufferView":1,
			"componentType":5126,
			"count":912,
			"type":"VEC3"
		},
		{
			"bufferView":2,
			"componentType":5126,
			"count":912,
			"type":"VEC2"
		},
		{
			"bufferView":3,
			"componentType":5123,
			"count":2040,
			"type":"SCALAR"
		}
	],
	"bufferViews":[
		{
			"buffer":0,
			"byteLength":10944,
			"byteOffset":0,
			"target":34962
		},
		{
			"buffer":0,
			"byteLength":10944,
			"byteOffset":10944,
			"target":34962
		},
		{
			"buffer":0,
			"byteLength":7296,
			"byteOffset":21888,
			"target":34962
		},
		{
			"buffer":0,
			"byteLength":4080,
			"byteOffset":29184,
			"target":34963
		}
	],
	"samplers":[
		{
			"magFilter":9729,
			"minFilter":9987
		}
	],
	"buffers":[
		{
			"byteLength":33264,
			"uri":"house.bin"
		}
	]
}
