{
	"asset":{
		"generator":"Khronos glTF Blender I/O v4.0.44",
		"version":"2.0"
	},
	"extensionsUsed":[
		"KHR_materials_specular",
		"KHR_materials_ior"
	],
	"scene":0,
	"scenes":[
		{
			"name":"Scene",
			"nodes":[
				0,
				1,
				2,
				3
			]
		}
	],
	"nodes":[
		{
			"mesh":0,
			"name":"3",
			"rotation":[
				0.7071068286895752,
				0,
				0,
				0.7071068286895752
			],
			"scale":[
				-0.029999999776482582,
				-0.029999999776482582,
				-0.029999999776482582
			],
			"translation": [
				-0.009653076529502869,
				0.43193064332008362,
				0
			]
		},
		{
			"mesh":1,
			"name":"4",
			"rotation":[
				-0.7071068286895752,
				0,
				0,
				0.7071068286895752
			],
			"scale":[
				0.009999999776482582,
				0.009999999776482582,
				0.009999999776482582
			],
			"translation":[
				-1.6629412174224854,
				0,
				2.390289306640625
			]
		},
		{
			"mesh":2,
			"name":"1",
			"rotation":[
				0,
				0.7071068286895752,
				0.7071068286895752,
				5.338508302088485e-08
			],
			"scale":[
				0.009999999776482582,
				0.009999999776482582,
				0.009999999776482582
			],
			"translation":[
				3.212599992752075,
				0,
				-0.44557279348373413
			]
		},
		{
			"mesh":3,
			"name":"2",
			"rotation":[
				0,
				0.7071068286895752,
				-0.7071068286895752,
				5.338508302088485e-08
			],
			"scale":[
				-0.009999999776482582,
				-0.009999999776482582,
				-0.009999999776482582
			],
			"translation":[
				-1.6629412174224854,
				0,
				-0.44557300209999084
			]
		}
	],
	"materials":[
		{
			"doubleSided":true,
			"extensions":{
				"KHR_materials_specular":{
					"specularColorFactor":[
						2.0,
						2.0,
						2.0
					]
				},
				"KHR_materials_ior":{
					"ior":1.4500000476837158
				}
			},
			"name":"Material #2",
			"pbrMetallicRoughness":{
				"baseColorTexture":{
					"index":0
				},
				"metallicFactor":0,
				"roughnessFactor":0.5527864098548889
			}
		},
		{
			"doubleSided":true,
			"extensions":{
				"KHR_materials_specular":{
					"specularColorFactor":[
						2.0,
						2.0,
						2.0
					]
				},
				"KHR_materials_ior":{
					"ior":1.4500000476837158
				}
			},
			"name":"Material #2.002",
			"pbrMetallicRoughness":{
				"baseColorTexture":{
					"index":1
				},
				"metallicFactor":0,
				"roughnessFactor":0.5527864098548889
			}
		}
	],
	"meshes":[
		{
			"name":"Mesh",
			"primitives":[
				{
					"attributes":{
						"POSITION":0,
						"NORMAL":1,
						"TEXCOORD_0":2
					},
					"indices":3,
					"material":0
				}
			]
		},
		{
			"name":"Mesh.001",
			"primitives":[
				{
					"attributes":{
						"POSITION":4,
						"NORMAL":5,
						"TEXCOORD_0":6
					},
					"indices":7,
					"material":0
				}
			]
		},
		{
			"name":"Mesh.002",
			"primitives":[
				{
					"attributes":{
						"POSITION":8,
						"NORMAL":9,
						"TEXCOORD_0":10
					},
					"indices":3,
					"material":1
				}
			]
		},
		{
			"name":"Mesh.003",
			"primitives":[
				{
					"attributes":{
						"POSITION":11,
						"NORMAL":12,
						"TEXCOORD_0":13
					},
					"indices":7,
					"material":0
				}
			]
		}
	],
	"textures":[
		{
			"sampler":0,
			"source":0
		},
		{
			"sampler":0,
			"source":0
		}
	],
	"images":[
		{
			"mimeType":"image/jpeg",
			"name":"baseColor",
			"uri":"textures/baseColor.jpg"
		}
	],
	"accessors":[
		{
			"bufferView":0,
			"componentType":5126,
			"count":4095,
			"max":[
				138.522705078125,
				141.79310607910156,
				11.782999992370605
			],
			"min":[
				-138.522705078125,
				-141.79310607910156,
				4.514100074768066
			],
			"type":"VEC3"
		},
		{
			"bufferView":1,
			"componentType":5126,
			"count":4095,
			"type":"VEC3"
		},
		{
			"bufferView":2,
			"componentType":5126,
			"count":4095,
			"type":"VEC2"
		},
		{
			"bufferView":3,
			"componentType":5123,
			"count":23808,
			"type":"SCALAR"
		},
		{
			"bufferView":4,
			"componentType":5126,
			"count":4095,
			"max":[
				349.03143310546875,
				141.79310607910156,
				11.782999992370605
			],
			"min":[
				71.98602294921875,
				-141.79310607910156,
				4.514100074768066
			],
			"type":"VEC3"
		},
		{
			"bufferView":5,
			"componentType":5126,
			"count":4095,
			"type":"VEC3"
		},
		{
			"bufferView":6,
			"componentType":5126,
			"count":4095,
			"type":"VEC2"
		},
		{
			"bufferView":7,
			"componentType":5123,
			"count":23808,
			"type":"SCALAR"
		},
		{
			"bufferView":8,
			"componentType":5126,
			"count":4095,
			"max":[
				138.522705078125,
				141.79310607910156,
				11.782999992370605
			],
			"min":[
				-138.522705078125,
				-141.79310607910156,
				4.514100074768066
			],
			"type":"VEC3"
		},
		{
			"bufferView":9,
			"componentType":5126,
			"count":4095,
			"type":"VEC3"
		},
		{
			"bufferView":10,
			"componentType":5126,
			"count":4095,
			"type":"VEC2"
		},
		{
			"bufferView":11,
			"componentType":5126,
			"count":4095,
			"max":[
				349.03143310546875,
				141.79310607910156,
				11.782999992370605
			],
			"min":[
				71.98602294921875,
				-141.79310607910156,
				4.514100074768066
			],
			"type":"VEC3"
		},
		{
			"bufferView":12,
			"componentType":5126,
			"count":4095,
			"type":"VEC3"
		},
		{
			"bufferView":13,
			"componentType":5126,
			"count":4095,
			"type":"VEC2"
		}
	],
	"bufferViews":[
		{
			"buffer":0,
			"byteLength":49140,
			"byteOffset":0,
			"target":34962
		},
		{
			"buffer":0,
			"byteLength":49140,
			"byteOffset":49140,
			"target":34962
		},
		{
			"buffer":0,
			"byteLength":32760,
			"byteOffset":98280,
			"target":34962
		},
		{
			"buffer":0,
			"byteLength":47616,
			"byteOffset":131040,
			"target":34963
		},
		{
			"buffer":0,
			"byteLength":49140,
			"byteOffset":178656,
			"target":34962
		},
		{
			"buffer":0,
			"byteLength":49140,
			"byteOffset":227796,
			"target":34962
		},
		{
			"buffer":0,
			"byteLength":32760,
			"byteOffset":276936,
			"target":34962
		},
		{
			"buffer":0,
			"byteLength":47616,
			"byteOffset":309696,
			"target":34963
		},
		{
			"buffer":0,
			"byteLength":49140,
			"byteOffset":357312,
			"target":34962
		},
		{
			"buffer":0,
			"byteLength":49140,
			"byteOffset":406452,
			"target":34962
		},
		{
			"buffer":0,
			"byteLength":32760,
			"byteOffset":455592,
			"target":34962
		},
		{
			"buffer":0,
			"byteLength":49140,
			"byteOffset":488352,
			"target":34962
		},
		{
			"buffer":0,
			"byteLength":49140,
			"byteOffset":537492,
			"target":34962
		},
		{
			"buffer":0,
			"byteLength":32760,
			"byteOffset":586632,
			"target":34962
		}
	],
	"samplers":[
		{
			"magFilter":9729,
			"minFilter":9987
		}
	],
	"buffers":[
		{
			"byteLength":619392,
			"uri":"grass.bin"
		}
	]
}
