{
	"asset":{
		"generator":"Khronos glTF Blender I/O v4.0.44",
		"version":"2.0"
	},
	"extensionsUsed":[
		"KHR_materials_specular",
		"KHR_materials_ior"
	],
	"scene":0,
	"scenes":[
		{
			"name":"Scene",
			"nodes":[
				0
			]
		}
	],
	"nodes":[
		{
			"mesh": 0,
			"name": "Tree.001",
			"translation": [
				-0.009653076529502869,
				0.39193064332008362,
				0
			]
		}
	],
	"materials":[
		{
			"doubleSided":true,
			"extensions":{
				"KHR_materials_specular":{
					"specularFactor":0.20000000298023224
				},
				"KHR_materials_ior":{
					"ior":1.4500000476837158
				}
			},
			"name":"trunk color",
			"pbrMetallicRoughness":{
				"baseColorFactor":[
					0.8000000715255737,
					0.14552806317806244,
					0.060454949736595154,
					1
				],
				"metallicFactor":0,
				"roughnessFactor":0.5
			}
		},
		{
			"doubleSided":true,
			"extensions":{
				"KHR_materials_specular":{
					"specularFactor":0.20000000298023224
				},
				"KHR_materials_ior":{
					"ior":1.4500000476837158
				}
			},
			"name":"branch color.001",
			"pbrMetallicRoughness":{
				"baseColorFactor":[
					0.26661428809165955,
					0.6444705724716187,
					0.12768016755580902,
					1
				],
				"metallicFactor":0,
				"roughnessFactor":0.5
			}
		},
		{
			"doubleSided":true,
			"extensions":{
				"KHR_materials_specular":{
					"specularFactor":0.20000000298023224
				},
				"KHR_materials_ior":{
					"ior":1.4500000476837158
				}
			},
			"name":"branch color",
			"pbrMetallicRoughness":{
				"baseColorFactor":[
					0.32893842458724976,
					0.8000000715255737,
					0.15640904009342194,
					1
				],
				"metallicFactor":0,
				"roughnessFactor":0.5
			}
		},
		{
			"doubleSided":true,
			"extensions":{
				"KHR_materials_specular":{
					"specularFactor":0.20000000298023224
				},
				"KHR_materials_ior":{
					"ior":1.4500000476837158
				}
			},
			"name":"branch color.003",
			"pbrMetallicRoughness":{
				"baseColorFactor":[
					0.20476172864437103,
					0.5805202722549438,
					0.0893389880657196,
					1
				],
				"metallicFactor":0,
				"roughnessFactor":0.5
			}
		}
	],
	"meshes":[
		{
			"name":"Tree.001",
			"primitives":[
				{
					"attributes":{
						"POSITION":0,
						"NORMAL":1,
						"TEXCOORD_0":2
					},
					"indices":3,
					"material":0
				},
				{
					"attributes":{
						"POSITION":4,
						"NORMAL":5,
						"TEXCOORD_0":6
					},
					"indices":7,
					"material":1
				},
				{
					"attributes":{
						"POSITION":8,
						"NORMAL":9,
						"TEXCOORD_0":10
					},
					"indices":11,
					"material":2
				},
				{
					"attributes":{
						"POSITION":12,
						"NORMAL":13,
						"TEXCOORD_0":14
					},
					"indices":15,
					"material":3
				}
			]
		}
	],
	"accessors":[
		{
			"bufferView":0,
			"componentType":5126,
			"count":220,
			"max":[
				3.662992477416992,
				14.202574729919434,
				3.2142271995544434
			],
			"min":[
				-2.7079381942749023,
				0,
				-5.079644680023193
			],
			"type":"VEC3"
		},
		{
			"bufferView":1,
			"componentType":5126,
			"count":220,
			"type":"VEC3"
		},
		{
			"bufferView":2,
			"componentType":5126,
			"count":220,
			"type":"VEC2"
		},
		{
			"bufferView":3,
			"componentType":5123,
			"count":444,
			"type":"SCALAR"
		},
		{
			"bufferView":4,
			"componentType":5126,
			"count":528,
			"max":[
				4.1567888259887695,
				10.033862113952637,
				4.999513626098633
			],
			"min":[
				-4.402393817901611,
				6.1425089836120605,
				-5.456007957458496
			],
			"type":"VEC3"
		},
		{
			"bufferView":5,
			"componentType":5126,
			"count":528,
			"type":"VEC3"
		},
		{
			"bufferView":6,
			"componentType":5126,
			"count":528,
			"type":"VEC2"
		},
		{
			"bufferView":7,
			"componentType":5123,
			"count":960,
			"type":"SCALAR"
		},
		{
			"bufferView":8,
			"componentType":5126,
			"count":1298,
			"max":[
				4.486679553985596,
				16.72641372680664,
				2.5662014484405518
			],
			"min":[
				-6.1038947105407715,
				5.4430036544799805,
				-5.598247051239014
			],
			"type":"VEC3"
		},
		{
			"bufferView":9,
			"componentType":5126,
			"count":1298,
			"type":"VEC3"
		},
		{
			"bufferView":10,
			"componentType":5126,
			"count":1298,
			"type":"VEC2"
		},
		{
			"bufferView":11,
			"componentType":5123,
			"count":2400,
			"type":"SCALAR"
		},
		{
			"bufferView":12,
			"componentType":5126,
			"count":256,
			"max":[
				-1.5548146963119507,
				12.334739685058594,
				4.455544471740723
			],
			"min":[
				-4.818020820617676,
				8.739313125610352,
				1.239614486694336
			],
			"type":"VEC3"
		},
		{
			"bufferView":13,
			"componentType":5126,
			"count":256,
			"type":"VEC3"
		},
		{
			"bufferView":14,
			"componentType":5126,
			"count":256,
			"type":"VEC2"
		},
		{
			"bufferView":15,
			"componentType":5123,
			"count":480,
			"type":"SCALAR"
		}
	],
	"bufferViews":[
		{
			"buffer":0,
			"byteLength":2640,
			"byteOffset":0,
			"target":34962
		},
		{
			"buffer":0,
			"byteLength":2640,
			"byteOffset":2640,
			"target":34962
		},
		{
			"buffer":0,
			"byteLength":1760,
			"byteOffset":5280,
			"target":34962
		},
		{
			"buffer":0,
			"byteLength":888,
			"byteOffset":7040,
			"target":34963
		},
		{
			"buffer":0,
			"byteLength":6336,
			"byteOffset":7928,
			"target":34962
		},
		{
			"buffer":0,
			"byteLength":6336,
			"byteOffset":14264,
			"target":34962
		},
		{
			"buffer":0,
			"byteLength":4224,
			"byteOffset":20600,
			"target":34962
		},
		{
			"buffer":0,
			"byteLength":1920,
			"byteOffset":24824,
			"target":34963
		},
		{
			"buffer":0,
			"byteLength":15576,
			"byteOffset":26744,
			"target":34962
		},
		{
			"buffer":0,
			"byteLength":15576,
			"byteOffset":42320,
			"target":34962
		},
		{
			"buffer":0,
			"byteLength":10384,
			"byteOffset":57896,
			"target":34962
		},
		{
			"buffer":0,
			"byteLength":4800,
			"byteOffset":68280,
			"target":34963
		},
		{
			"buffer":0,
			"byteLength":3072,
			"byteOffset":73080,
			"target":34962
		},
		{
			"buffer":0,
			"byteLength":3072,
			"byteOffset":76152,
			"target":34962
		},
		{
			"buffer":0,
			"byteLength":2048,
			"byteOffset":79224,
			"target":34962
		},
		{
			"buffer":0,
			"byteLength":960,
			"byteOffset":81272,
			"target":34963
		}
	],
	"buffers":[
		{
			"byteLength":82232,
			"uri":"Tree2.bin"
		}
	]
}
